<svg width="109" height="103" viewBox="0 0 109 103" fill="none" xmlns="http://www.w3.org/2000/svg">
<path d="M54.075 8.51583C78.9225 8.51583 99.1375 27.6168 99.1375 51.095C99.1375 74.5732 78.9225 93.6742 54.075 93.6742C29.2275 93.6742 9.0125 74.5732 9.0125 51.095C9.0125 27.6168 29.2275 8.51583 54.075 8.51583ZM54.075 0C24.2121 0 0 22.8778 0 51.095C0 79.3122 24.2121 102.19 54.075 102.19C83.9379 102.19 108.15 79.3122 108.15 51.095C108.15 22.8778 83.9379 0 54.075 0ZM44.9138 68.1693C47.4553 60.5518 52.268 51.4271 53.1197 49.1193C54.3499 45.7683 52.1689 44.2823 45.2788 50.0092L43.7467 47.2842C51.6056 39.2069 67.7875 37.3803 62.2809 49.8943C58.8426 57.7076 56.3822 62.9831 54.9762 67.0537C52.9259 72.985 58.1036 70.5792 63.1731 66.1553C63.8626 67.2197 64.0879 67.5646 64.7773 68.7909C53.5207 78.9162 41.0249 79.8104 44.9138 68.1693ZM66.2824 33.3863C63.8851 35.3152 60.3342 35.2726 58.3469 33.2927C56.3597 31.3127 56.6931 28.1491 59.0859 26.2203C61.4833 24.2914 65.0342 24.3383 67.0215 26.3139C68.9997 28.2981 68.6752 31.4617 66.2824 33.3863Z" fill="white"/>
</svg>
