<svg width="236" height="223" viewBox="0 0 236 223" fill="none" xmlns="http://www.w3.org/2000/svg">
<path d="M118 223C183.17 223 236 173.08 236 111.5C236 49.9203 183.17 0 118 0C52.8304 0 0 49.9203 0 111.5C0 173.08 52.8304 223 118 223Z" fill="#3D73DD"/>
<path opacity="0.42" d="M89.6568 220.957L177.97 137.508C178.476 137.06 178.878 136.518 179.153 135.917C179.429 135.316 179.57 134.669 179.57 134.014V127.559L191.921 115.885C192.426 115.437 192.828 114.895 193.104 114.294C193.379 113.693 193.521 113.045 193.52 112.391V110.61C193.52 109.978 193.389 109.353 193.133 108.769C192.877 108.186 192.502 107.656 192.03 107.209C191.557 106.763 190.996 106.409 190.379 106.167C189.761 105.925 189.1 105.801 188.431 105.801H183.148C182.901 105.801 182.657 105.852 182.433 105.95C182.21 106.049 182.012 106.193 181.853 106.372L179.57 108.528V88.9863C179.57 88.3548 179.439 87.7295 179.183 87.1461C178.927 86.5627 178.552 86.0326 178.08 85.586C177.607 85.1395 177.046 84.7853 176.429 84.5437C175.811 84.302 175.149 84.1776 174.481 84.1777H172.596C171.903 84.1774 171.218 84.3115 170.582 84.5715C169.946 84.8315 169.373 85.212 168.898 85.6894L165.62 88.7819V81.6109C165.62 80.3356 165.084 79.1125 164.129 78.2107C163.175 77.3089 161.881 76.8023 160.531 76.8023H158.646C157.953 76.8021 157.267 76.9361 156.631 77.1961C155.995 77.4561 155.423 77.8366 154.948 78.314L125.327 106.304L125.319 106.31H86.0566C85.8051 106.31 85.5567 106.362 85.3287 106.463C85.1008 106.563 84.8988 106.709 84.7372 106.891L82.4436 109.058V81.6109C82.4436 80.3356 81.9074 79.1125 80.9531 78.2107C79.9987 77.3089 78.7043 76.8023 77.3546 76.8023H75.4698C74.7769 76.8021 74.0912 76.9361 73.4552 77.1961C72.8192 77.4561 72.2464 77.8366 71.7721 78.314L65.2195 84.4982C64.6403 84.2872 64.0251 84.1785 63.4044 84.1776H61.5197C60.8267 84.1774 60.141 84.3115 59.505 84.5715C58.8689 84.8315 58.2961 85.212 57.8218 85.6894L2.4209 138.038C15.7327 184.582 45.0939 211.883 89.6568 220.957Z" fill="url(#paint0_linear)"/>
<path d="M84.3311 107.941V116.078C84.3311 116.979 85.1036 117.709 86.0566 117.709H149.944C150.897 117.709 151.67 116.979 151.67 116.078V107.941C151.67 107.04 150.897 106.31 149.944 106.31H86.0566C85.1036 106.31 84.3311 107.04 84.3311 107.941Z" fill="white"/>
<path d="M63.4044 84.1776H61.5197C58.7091 84.1776 56.4307 86.3306 56.4307 88.9863V134.014C56.4307 136.669 58.7091 138.822 61.5197 138.822H63.4044C66.215 138.822 68.4934 136.669 68.4934 134.014V88.9863C68.4934 86.3306 66.215 84.1776 63.4044 84.1776Z" fill="white"/>
<path d="M172.597 138.822H174.481C177.292 138.822 179.57 136.67 179.57 134.014V88.9864C179.57 86.3306 177.292 84.1777 174.481 84.1777H172.597C169.786 84.1777 167.508 86.3306 167.508 88.9864V134.014C167.508 136.67 169.786 138.822 172.597 138.822Z" fill="white"/>
<path d="M47.5694 105.801H52.8533C53.3015 105.801 53.7313 105.969 54.0482 106.269C54.3652 106.568 54.5432 106.974 54.5432 107.398V115.602C54.5432 116.026 54.3652 116.432 54.0482 116.731C53.7313 117.031 53.3015 117.199 52.8533 117.199H47.5694C46.2198 117.199 44.9254 116.693 43.971 115.791C43.0166 114.889 42.4805 113.666 42.4805 112.391V110.61C42.4805 109.334 43.0166 108.111 43.971 107.209C44.9254 106.308 46.2198 105.801 47.5694 105.801V105.801Z" fill="white"/>
<path d="M188.432 117.199H183.148C182.7 117.199 182.27 117.031 181.953 116.731C181.636 116.432 181.458 116.026 181.458 115.602V107.398C181.458 106.974 181.636 106.568 181.953 106.269C182.27 105.969 182.7 105.801 183.148 105.801H188.432C189.1 105.801 189.762 105.925 190.379 106.167C190.996 106.409 191.557 106.763 192.03 107.209C192.503 107.656 192.877 108.186 193.133 108.769C193.389 109.353 193.521 109.978 193.521 110.61V112.391C193.52 113.666 192.984 114.889 192.03 115.791C191.076 116.693 189.781 117.199 188.432 117.199Z" fill="white"/>
<path d="M77.3546 76.8023H75.4698C72.6593 76.8023 70.3809 78.9552 70.3809 81.611V141.389C70.3809 144.045 72.6593 146.198 75.4698 146.198H77.3546C80.1652 146.198 82.4436 144.045 82.4436 141.389V81.611C82.4436 78.9552 80.1652 76.8023 77.3546 76.8023Z" fill="white"/>
<path d="M158.646 146.198H160.531C163.342 146.198 165.62 144.045 165.62 141.389V81.6111C165.62 78.9553 163.342 76.8024 160.531 76.8024H158.646C155.836 76.8024 153.557 78.9553 153.557 81.6111V141.389C153.557 144.045 155.836 146.198 158.646 146.198Z" fill="white"/>
<defs>
<linearGradient id="paint0_linear" x1="121.934" y1="107.783" x2="49.3428" y2="184.606" gradientUnits="userSpaceOnUse">
<stop/>
<stop offset="1" stop-opacity="0"/>
</linearGradient>
</defs>
</svg>
