<svg width="236" height="223" viewBox="0 0 236 223" fill="none" xmlns="http://www.w3.org/2000/svg">
<path d="M118 223C183.17 223 236 173.08 236 111.5C236 49.9203 183.17 0 118 0C52.8304 0 0 49.9203 0 111.5C0 173.08 52.8304 223 118 223Z" fill="#3D73DD"/>
<path fill-rule="evenodd" clip-rule="evenodd" d="M62.6079 61.9856L0.203613 120.952C4.39468 162.522 9.70498 203.786 99.5626 222.005L173.386 152.248L173.393 61.9856L116.357 75.0726L62.6084 61.9856H62.6079Z" fill="url(#paint0_linear)"/>
<path fill-rule="evenodd" clip-rule="evenodd" d="M62.6079 61.9857V152.248L116.28 164.861L173.386 152.248L173.392 61.9857L116.36 75.073L62.611 61.9857H62.6079ZM65.898 65.6295L114.617 77.7975L114.476 161.947L65.8981 150.287V65.6281L65.898 65.6295ZM170.077 65.6295L170.107 150.236L117.757 161.885L117.904 77.7978L170.081 65.6298L170.077 65.6295ZM77.5417 88.7507L76.8577 91.5197L102.83 98.0048L103.55 95.0799L77.5417 88.7507ZM157.581 88.7507L131.573 95.0797L132.292 98.0046L158.265 91.5195L157.581 88.7507ZM77.5417 108.563L76.8577 111.332L102.83 117.817L103.55 114.892L77.5417 108.563ZM157.581 108.563L131.573 114.892L132.292 117.817L158.265 111.331L157.581 108.563ZM77.5417 130.531L76.8577 133.3L102.83 139.785L103.55 136.86L77.5417 130.531ZM157.581 130.531L131.573 136.86L132.292 139.785L158.265 133.299L157.581 130.531Z" fill="white"/>
<defs>
<linearGradient id="paint0_linear" x1="117.156" y1="109.908" x2="36.854" y2="202.845" gradientUnits="userSpaceOnUse">
<stop stop-opacity="0.42"/>
<stop offset="1" stop-opacity="0"/>
</linearGradient>
</defs>
</svg>
