<svg width="236" height="223" viewBox="0 0 236 223" fill="none" xmlns="http://www.w3.org/2000/svg">
<path d="M118 223C183.17 223 236 173.08 236 111.5C236 49.9203 183.17 0 118 0C52.8304 0 0 49.9203 0 111.5C0 173.08 52.8304 223 118 223Z" fill="#3D73DD"/>
<path opacity="0.42" fill-rule="evenodd" clip-rule="evenodd" d="M71.2219 63.0616L0.985352 129.429C8.35976 182.328 37.353 219.011 110.109 222.858L168.07 168.089V63.0588L71.2219 63.0616Z" fill="url(#paint0_linear)"/>
<path fill-rule="evenodd" clip-rule="evenodd" d="M71.2217 63.0616V168.092H133.304V162.224H76.6349V68.9318H162.66V162.224H154.324V168.092H168.071V63.0616H71.2229H71.2217ZM81.9494 73.762V79.9567H144.826V73.762H81.9494ZM81.9494 82.1245V88.3192H149.147V82.1245H81.9494ZM81.9494 90.487V96.6817H129.76V90.487H81.9494ZM81.9494 98.8495V105.044H143.351V98.8495H81.9494ZM81.9494 107.212V113.407H146.929V107.212H81.9494ZM81.9494 115.574V121.769H154.935V115.574H81.9494ZM81.9494 123.937V130.132H152.407V123.937H81.9494ZM142.421 135.875L141.315 138.707L138.967 136.659L138.673 139.663L135.844 138.26L136.295 140.739L133.731 140.056L135.097 143.29L131.412 143.428L133.116 145.364L130.533 145.983L133.041 147.852L130.254 149.327L133.189 150.519L130.902 152.625L133.537 152.986L132.058 155.078L135.739 154.852L134.739 158.202L137.214 157.271L137.04 159.782L138.918 158.598V176.906L143.815 171.507L148.712 176.906V158.561L150.647 159.782L150.473 157.271L152.948 158.202L152.082 155.298L155.255 155.652L153.622 153.059L156.785 152.625L154.876 150.87L157.376 149.997L154.259 148.138L157.154 145.983L154.572 145.364L156.274 143.428L153.082 143.309L154.419 140.568L151.301 141.233L151.841 138.26L149.484 139.43L149.378 136.916L146.542 139.142L145.266 135.875L143.844 138.002L142.421 135.875ZM143.815 140.6C146.085 140.6 148.263 141.452 149.868 142.969C151.474 144.486 152.376 146.544 152.376 148.689C152.376 149.752 152.154 150.803 151.724 151.785C151.294 152.766 150.663 153.658 149.868 154.409C149.073 155.161 148.13 155.757 147.091 156.163C146.052 156.57 144.939 156.779 143.815 156.779C141.544 156.779 139.367 155.926 137.761 154.409C136.156 152.892 135.254 150.835 135.254 148.689C135.254 146.544 136.156 144.487 137.762 142.97C139.367 141.453 141.544 140.601 143.815 140.6ZM143.815 141.312C141.744 141.312 139.758 142.089 138.294 143.473C136.83 144.856 136.008 146.733 136.007 148.689C136.007 149.658 136.209 150.617 136.602 151.512C136.994 152.407 137.569 153.221 138.294 153.906C139.019 154.591 139.88 155.134 140.827 155.505C141.774 155.876 142.789 156.067 143.815 156.067C144.84 156.067 145.855 155.876 146.803 155.505C147.75 155.134 148.611 154.591 149.336 153.906C150.061 153.221 150.636 152.408 151.028 151.512C151.42 150.617 151.622 149.658 151.622 148.689C151.622 147.72 151.42 146.761 151.028 145.866C150.636 144.971 150.06 144.158 149.335 143.473C148.61 142.788 147.75 142.244 146.802 141.873C145.855 141.503 144.84 141.312 143.815 141.312Z" fill="white"/>
<defs>
<linearGradient id="paint0_linear" x1="115.472" y1="112.278" x2="47.7275" y2="190.174" gradientUnits="userSpaceOnUse">
<stop/>
<stop offset="1" stop-opacity="0"/>
</linearGradient>
</defs>
</svg>
