<svg width="236" height="223" viewBox="0 0 236 223" fill="none" xmlns="http://www.w3.org/2000/svg">
<path d="M118 223C183.17 223 236 173.08 236 111.5C236 49.9203 183.17 0 118 0C52.8304 0 0 49.9203 0 111.5C0 173.08 52.8304 223 118 223Z" fill="#3D73DD"/>
<path d="M72.4343 74.6771C67.0151 74.6771 62.1338 76.8452 58.7005 80.3098L1.63574 134.231C10.5984 170.296 41.4784 215.531 105.331 222.475L195.486 137.055C195.479 125.998 189.802 115.724 180.463 109.871H180.457C176.25 113.523 170.859 115.688 165.191 116.046L176.414 105.431C180.082 102.187 182.377 97.5745 182.377 92.4525C182.377 82.6343 173.955 74.6752 163.564 74.6752C158.145 74.6752 153.264 76.8432 149.83 80.3079L134.541 94.7407C131.355 89.2 125.141 85.4385 117.999 85.4385C112.58 85.4386 107.7 87.6059 104.267 91.0696L78.5347 115.376L74.0619 116.045L85.287 105.429C88.9535 102.185 91.248 97.5732 91.248 92.4523C91.248 82.6342 82.8249 74.675 72.4344 74.675L72.4343 74.6771Z" fill="url(#paint0_linear)"/>
<path d="M72.4341 74.6909C62.0436 74.691 53.6202 82.6504 53.6202 92.4685C53.6201 102.287 62.0436 110.246 72.4341 110.246C82.8249 110.246 91.248 102.287 91.2477 92.4685C91.2477 82.6504 82.8246 74.6909 72.4341 74.6909ZM89.3276 109.889C84.7191 113.889 78.692 116.113 72.4341 116.122C66.1854 116.111 60.1668 113.892 55.5619 109.901C46.2187 115.746 40.5328 126.015 40.5166 137.072C40.5229 137.231 40.5302 137.389 40.5388 137.548H85.6178C87.9305 130.285 92.6476 123.905 99.1618 119.565C96.6625 115.719 93.3353 112.397 89.333 109.889H89.3274L89.3276 109.889Z" fill="white"/>
<path d="M163.563 74.6909C153.173 74.691 144.749 82.6504 144.749 92.4685C144.749 102.287 153.173 110.246 163.563 110.246C173.954 110.246 182.377 102.287 182.377 92.4685C182.377 82.6504 173.954 74.6909 163.563 74.6909ZM180.457 109.889C175.848 113.889 169.821 116.113 163.563 116.122C157.314 116.111 151.296 113.892 146.691 109.901C142.691 112.403 139.365 115.717 136.864 119.555C143.374 123.9 148.086 130.283 150.392 137.548H195.463C195.471 137.389 195.479 137.231 195.485 137.072C195.478 126.015 189.801 115.741 180.462 109.889L180.457 109.889Z" fill="white"/>
<path d="M117.997 85.4535C107.607 85.4535 99.1832 93.4126 99.1832 103.231C99.1831 113.049 107.606 121.009 117.997 121.009C128.388 121.009 136.811 113.049 136.811 103.231C136.811 93.4129 128.388 85.4535 117.997 85.4535ZM134.891 120.648C130.282 124.649 124.255 126.872 117.997 126.882C111.748 126.871 105.73 124.652 101.125 120.661C91.7816 126.506 86.0955 136.775 86.0796 147.832C86.0859 147.991 86.0933 148.149 86.1019 148.308H149.899C149.907 148.149 149.915 147.991 149.921 147.832C149.914 136.774 144.236 126.501 134.898 120.648H134.891Z" fill="white"/>
<defs>
<linearGradient id="paint0_linear" x1="117.024" y1="126.221" x2="40.2647" y2="207.454" gradientUnits="userSpaceOnUse">
<stop stop-opacity="0.42"/>
<stop offset="1" stop-opacity="0"/>
</linearGradient>
</defs>
</svg>
