<svg width="236" height="223" viewBox="0 0 236 223" fill="none" xmlns="http://www.w3.org/2000/svg">
<path d="M118 223C183.17 223 236 173.08 236 111.5C236 49.9203 183.17 0 118 0C52.8304 0 0 49.9203 0 111.5C0 173.08 52.8304 223 118 223Z" fill="#3D73DD"/>
<path opacity="0.3" d="M91.1255 223L149 167.431L143.84 144.152L75.9851 79.0001L2 150.038C15.0373 192.802 43.5118 218.488 91.1255 223Z" fill="url(#paint0_linear)"/>
<path d="M117.075 60C87.2121 60 63 82.8778 63 111.095C63 139.312 87.2121 162.19 117.075 162.19C146.938 162.19 171.15 139.312 171.15 111.095C171.15 82.8778 146.938 60 117.075 60ZM152.012 137.941C150.836 135.446 148.457 133.722 143.581 132.657C133.248 130.405 123.627 128.429 128.291 120.118C142.463 94.817 132.045 81.2896 117.075 81.2896C101.808 81.2896 91.6417 95.3365 105.859 120.118C110.663 128.48 100.686 130.451 90.5692 132.657C85.6845 133.722 83.3232 135.459 82.1561 137.962C75.8248 130.626 72.0125 121.276 72.0125 111.095C72.0125 87.6168 92.2275 68.5158 117.075 68.5158C141.922 68.5158 162.137 87.6168 162.137 111.095C162.137 121.267 158.33 130.609 152.012 137.941Z" fill="white"/>
<defs>
<linearGradient id="paint0_linear" x1="98.715" y1="136.444" x2="46.0926" y2="191.25" gradientUnits="userSpaceOnUse">
<stop/>
<stop offset="1" stop-opacity="0"/>
</linearGradient>
</defs>
</svg>
