<svg width="236" height="223" viewBox="0 0 236 223" fill="none" xmlns="http://www.w3.org/2000/svg">
<path d="M118 223C183.17 223 236 173.08 236 111.5C236 49.9202 183.17 0 118 0C52.8304 0 0 49.9202 0 111.5C0 173.08 52.8304 223 118 223Z" fill="#3D73DD"/>
<path opacity="0.3" d="M91.1255 223L149 167.431L143.84 144.152L75.9851 79L2 150.038C15.0373 192.802 43.5118 218.488 91.1255 223Z" fill="url(#paint0_linear)"/>
<path d="M118.5 65C98.8219 65 81 78.1866 81 94.4578C81 110.725 97.2609 130.146 118.5 158C139.739 130.146 156 110.725 156 94.4578C156 78.1866 138.183 65 118.5 65ZM118.5 107.625C110.733 107.625 104.438 102.421 104.438 96C104.438 89.5791 110.733 84.375 118.5 84.375C126.267 84.375 132.562 89.5791 132.562 96C132.562 102.421 126.267 107.625 118.5 107.625Z" fill="white"/>
<defs>
<linearGradient id="paint0_linear" x1="98.715" y1="136.444" x2="46.0926" y2="191.25" gradientUnits="userSpaceOnUse">
<stop/>
<stop offset="1" stop-opacity="0"/>
</linearGradient>
</defs>
</svg>
