<svg width="236" height="223" viewBox="0 0 236 223" fill="none" xmlns="http://www.w3.org/2000/svg">
<path d="M118 223C183.17 223 236 173.08 236 111.5C236 49.9203 183.17 0 118 0C52.8304 0 0 49.9203 0 111.5C0 173.08 52.8304 223 118 223Z" fill="#3D73DD"/>
<path opacity="0.3" d="M91.1255 223L149 167.431L143.84 144.152L75.9851 79.0001L2 150.038C15.0373 192.802 43.5118 218.488 91.1255 223Z" fill="url(#paint0_linear)"/>
<path d="M101.853 140.9C101.853 143.251 99.4299 145.158 96.445 145.158C93.4601 145.158 91.0375 143.251 91.0375 140.9V98.3213C91.0375 95.9709 93.4601 94.0633 96.445 94.0633C99.4299 94.0633 101.853 95.9709 101.853 98.3213V140.9ZM123.483 140.9C123.483 143.251 121.06 145.158 118.075 145.158C115.09 145.158 112.668 143.251 112.668 140.9V98.3213C112.668 95.9709 115.09 94.0633 118.075 94.0633C121.06 94.0633 123.483 95.9709 123.483 98.3213V140.9ZM145.113 140.9C145.113 143.251 142.69 145.158 139.705 145.158C136.72 145.158 134.298 143.251 134.298 140.9V98.3213C134.298 95.9709 136.72 94.0633 139.705 94.0633C142.69 94.0633 145.113 95.9709 145.113 98.3213V140.9ZM172.15 68.5158V77.0317H64V68.5158H94.8822C99.749 68.5158 103.702 63.8364 103.702 60H132.443C132.443 63.8364 136.39 68.5158 141.262 68.5158H172.15ZM155.928 85.5475V153.674H80.2225V85.5475H69.4075V162.19H166.743V85.5475H155.928Z" fill="white"/>
<defs>
<linearGradient id="paint0_linear" x1="98.715" y1="136.444" x2="46.0926" y2="191.25" gradientUnits="userSpaceOnUse">
<stop/>
<stop offset="1" stop-opacity="0"/>
</linearGradient>
</defs>
</svg>
