<svg width="236" height="223" viewBox="0 0 236 223" fill="none" xmlns="http://www.w3.org/2000/svg">
<path d="M118 223C183.17 223 236 173.08 236 111.5C236 49.9203 183.17 0 118 0C52.8304 0 0 49.9203 0 111.5C0 173.08 52.8304 223 118 223Z" fill="#3D73DD"/>
<path opacity="0.3" d="M106.888 222.639L174.847 158.423L168.788 131.523L89.1089 56.2325L2.23145 138.324C17.5406 187.743 50.977 217.425 106.888 222.639Z" fill="url(#paint0_linear)"/>
<path d="M172.896 149.76L168.788 131.523L89.109 56.2326L66.6992 77.408L146.379 152.698L165.678 156.579L174.847 158.423L172.896 149.76ZM164.409 153.556L149.386 150.535L166.499 134.365L169.696 148.56C168.444 148.91 167.304 149.55 166.38 150.423C165.456 151.295 164.779 152.373 164.409 153.556Z" fill="white"/>
<defs>
<linearGradient id="paint0_linear" x1="115.8" y1="122.615" x2="55.0365" y2="186.921" gradientUnits="userSpaceOnUse">
<stop/>
<stop offset="1" stop-opacity="0"/>
</linearGradient>
</defs>
</svg>
