<svg width="236" height="223" viewBox="0 0 236 223" fill="none" xmlns="http://www.w3.org/2000/svg">
<path d="M118 223C183.17 223 236 173.08 236 111.5C236 49.9203 183.17 0 118 0C52.8304 0 0 49.9203 0 111.5C0 173.08 52.8304 223 118 223Z" fill="#3D73DD"/>
<path opacity="0.3" d="M91.1255 223L149 167.431L143.84 144.152L75.9851 79.0001L2 150.038C15.0373 192.802 43.5118 218.488 91.1255 223Z" fill="url(#paint0_linear)"/>
<path d="M146.606 72.7738V64.2579C146.606 61.9075 148.621 60 151.112 60C153.604 60 155.619 61.9075 155.619 64.2579V72.7738C155.619 75.1241 153.604 77.0317 151.112 77.0317C148.621 77.0317 146.606 75.1241 146.606 72.7738ZM92.5312 77.0317C95.0232 77.0317 97.0375 75.1241 97.0375 72.7738V64.2579C97.0375 61.9075 95.0232 60 92.5312 60C90.0393 60 88.025 61.9075 88.025 64.2579V72.7738C88.025 75.1241 90.0393 77.0317 92.5312 77.0317ZM151.112 132.385V119.611H146.606V136.643H160.125V132.385H151.112ZM128.581 134.514C128.581 145.077 137.679 153.674 148.859 153.674C160.039 153.674 169.137 145.077 169.137 134.514C169.137 123.95 160.039 115.353 148.859 115.353C137.679 115.353 128.581 123.95 128.581 134.514ZM178.15 134.514C178.15 149.799 165.037 162.19 148.859 162.19C132.682 162.19 119.569 149.799 119.569 134.514C119.569 119.228 132.682 106.837 148.859 106.837C165.037 106.837 178.15 119.228 178.15 134.514ZM113.995 149.416H79.0125V94.0633H164.631V101.57C167.907 102.975 170.935 104.793 173.644 106.969V68.5158H160.125V72.7738C160.125 78.3772 154.366 82.733 148.147 80.8382C144.403 79.6971 142.1 76.1077 142.1 72.3905V68.5158H101.544V72.7738C101.544 78.3772 95.7848 82.733 89.5661 80.8382C85.8214 79.6971 83.5187 76.1077 83.5187 72.3905V68.5158H70V157.932H119.708C117.406 155.373 115.482 152.512 113.995 149.416Z" fill="white"/>
<defs>
<linearGradient id="paint0_linear" x1="98.715" y1="136.444" x2="46.0926" y2="191.25" gradientUnits="userSpaceOnUse">
<stop/>
<stop offset="1" stop-opacity="0"/>
</linearGradient>
</defs>
</svg>
