<svg width="236" height="223" viewBox="0 0 236 223" fill="none" xmlns="http://www.w3.org/2000/svg">
<path d="M118 223C183.17 223 236 173.08 236 111.5C236 49.9203 183.17 0 118 0C52.8304 0 0 49.9203 0 111.5C0 173.08 52.8304 223 118 223Z" fill="#3D73DD"/>
<path opacity="0.3" d="M91.1255 223L149 167.431L143.84 144.152L75.9851 79.0001L2 150.038C15.0373 192.802 43.5118 218.488 91.1255 223Z" fill="url(#paint0_linear)"/>
<path d="M130.056 153.862C132.543 152.869 134.909 151.613 137.126 150.11L142.484 157.983C139.303 160.207 135.86 162.017 132.219 163.37L130.056 153.862ZM84.5201 137.2L79.1126 145.837C81.0097 148.548 83.1862 151.005 85.5385 153.263L90.4142 144.947C88.1746 142.636 86.1874 140.037 84.5201 137.2ZM79.2207 107.795C82.4246 88.4666 98.0298 73.7321 116.834 73.7321C137.955 73.7321 155.137 92.2864 155.137 115.094C155.137 126.349 150.938 136.558 144.16 144.022L149.554 151.939C158.535 142.64 164.15 129.585 164.15 115.094C164.15 86.8802 142.957 64 116.834 64C93.0053 64 73.3536 83.0458 70.073 107.795H56L74.025 136.587L92.05 107.795H79.2207ZM105.109 154.382C102.486 153.463 99.9765 152.295 97.6377 150.815L92.8386 159.005C95.9389 160.995 99.2555 162.601 102.757 163.788L105.109 154.382ZM121.296 156.153C117.515 156.625 116.632 156.475 113.982 156.256L111.58 165.852C115.843 166.362 119.065 166.299 123.459 165.633L121.296 156.153Z" fill="white"/>
<defs>
<linearGradient id="paint0_linear" x1="98.715" y1="136.444" x2="46.0926" y2="191.25" gradientUnits="userSpaceOnUse">
<stop/>
<stop offset="1" stop-opacity="0"/>
</linearGradient>
</defs>
</svg>
