<svg width="236" height="223" viewBox="0 0 236 223" fill="none" xmlns="http://www.w3.org/2000/svg">
<path d="M118 223C183.17 223 236 173.08 236 111.5C236 49.9203 183.17 0 118 0C52.8304 0 0 49.9203 0 111.5C0 173.08 52.8304 223 118 223Z" fill="#3D73DD"/>
<path opacity="0.42" d="M79.4433 219.645L156.826 146.526L173.042 98.4767C173.282 97.7651 173.341 97.0099 173.215 96.2725C173.088 95.5352 172.778 94.8366 172.312 94.2334C171.846 93.6303 171.235 93.1397 170.53 92.8014C169.825 92.4632 169.046 92.2869 168.255 92.2869H153.389L156.825 89.7365V85.9107C156.825 85.4976 156.739 85.0886 156.572 84.707C156.405 84.3253 156.16 83.9786 155.85 83.6865C155.541 83.3944 155.174 83.1627 154.77 83.0046C154.367 82.8465 153.934 82.7652 153.497 82.7652H109.232C108.794 82.7652 108.362 82.6838 107.958 82.5257C107.554 82.3677 107.187 82.136 106.878 81.8439C106.569 81.5518 106.323 81.205 106.156 80.8234C105.989 80.4417 105.903 80.0327 105.903 79.6196C105.903 78.7854 105.552 77.9853 104.928 77.3954C104.303 76.8055 103.457 76.4741 102.574 76.4741H66.046C65.5058 76.4739 64.9737 76.5981 64.4957 76.836C64.0177 77.0739 63.6082 77.4183 63.3028 77.8393L1.74512 136.006C10.7244 177.232 35.6648 205.868 79.4433 219.645Z" fill="url(#paint0_linear)"/>
<path d="M168.256 92.2868H84.6941C83.6284 92.2868 82.5904 92.607 81.7299 93.2011C80.8695 93.7951 80.2312 94.6323 79.9074 95.5917L68.1155 130.531V81.5751H100.752C101.218 83.3682 102.307 84.9622 103.844 86.1025C105.381 87.2428 107.278 87.8637 109.232 87.8661H151.427V89.7365H156.826V85.9107C156.826 85.4976 156.74 85.0886 156.572 84.707C156.405 84.3253 156.16 83.9786 155.851 83.6865C155.542 83.3944 155.175 83.1627 154.771 83.0046C154.367 82.8465 153.934 82.7652 153.497 82.7652H109.232C108.794 82.7652 108.362 82.6838 107.958 82.5257C107.554 82.3677 107.187 82.136 106.878 81.8439C106.569 81.5518 106.323 81.205 106.156 80.8234C105.989 80.4418 105.903 80.0327 105.903 79.6196C105.903 78.7854 105.552 77.9853 104.928 77.3954C104.303 76.8055 103.457 76.4741 102.574 76.4741H66.0461C65.609 76.4741 65.1761 76.5555 64.7722 76.7136C64.3683 76.8717 64.0013 77.1034 63.6922 77.3955C63.3831 77.6876 63.1379 78.0343 62.9706 78.416C62.8034 78.7976 62.7173 79.2067 62.7173 79.6198V146.526H156.826L173.042 98.4767C173.282 97.7651 173.342 97.0098 173.215 96.2725C173.088 95.5352 172.779 94.8365 172.312 94.2334C171.846 93.6302 171.235 93.1396 170.53 92.8013C169.826 92.4631 169.046 92.2868 168.256 92.2868Z" fill="white"/>
<defs>
<linearGradient id="paint0_linear" x1="116.93" y1="105.657" x2="46.9513" y2="179.716" gradientUnits="userSpaceOnUse">
<stop/>
<stop offset="1" stop-opacity="0"/>
</linearGradient>
</defs>
</svg>
