<svg width="241" height="208" viewBox="0 0 241 208" fill="none" xmlns="http://www.w3.org/2000/svg">
<path d="M203.377 106L193.877 130.72C193.73 131.097 193.474 131.421 193.14 131.65C192.806 131.878 192.411 132 192.007 132H191.977C191.568 131.995 191.171 131.865 190.838 131.627C190.505 131.39 190.254 131.056 190.117 130.67L173.737 84.2403L166.817 98.8603C166.652 99.201 166.395 99.4885 166.075 99.69C165.755 99.8916 165.385 99.9991 165.007 100H159.117L149.707 115.06C149.515 115.376 149.237 115.631 148.906 115.796C148.575 115.96 148.205 116.028 147.837 115.99C147.469 115.961 147.117 115.829 146.82 115.61C146.523 115.391 146.293 115.093 146.157 114.75L125.877 64.9803L111.817 94.8503C111.655 95.1934 111.398 95.4835 111.078 95.687C110.758 95.8906 110.386 95.9992 110.007 96.0003H103.757L89.8069 124.87C89.6483 125.194 89.4062 125.469 89.1056 125.668C88.8049 125.867 88.4567 125.981 88.0969 126C87.7372 126.016 87.3799 125.935 87.063 125.764C86.746 125.593 86.4813 125.34 86.2969 125.03L74.8769 106H64.0069C63.6624 106 63.324 105.91 63.0244 105.74C62.7249 105.57 62.4742 105.326 62.2969 105.03L51.9869 87.8603L41.4669 105.04C41.2882 105.334 41.0371 105.576 40.7376 105.744C40.4381 105.912 40.1003 106.001 39.7569 106H26.0269C26.5342 130.59 36.6585 154.001 54.2279 171.211C71.7973 188.422 95.4123 198.061 120.007 198.061C144.601 198.061 168.216 188.422 185.786 171.211C203.355 154.001 213.48 130.59 213.987 106H203.377ZM174.007 142C174.007 141.47 174.218 140.961 174.593 140.586C174.968 140.211 175.476 140 176.007 140C176.537 140 177.046 140.211 177.421 140.586C177.796 140.961 178.007 141.47 178.007 142V158C178.007 158.531 177.796 159.039 177.421 159.415C177.046 159.79 176.537 160 176.007 160C175.476 160 174.968 159.79 174.593 159.415C174.218 159.039 174.007 158.531 174.007 158V142ZM160.007 150C160.007 149.47 160.218 148.961 160.593 148.586C160.968 148.211 161.476 148 162.007 148C162.537 148 163.046 148.211 163.421 148.586C163.796 148.961 164.007 149.47 164.007 150V158C164.007 158.531 163.796 159.039 163.421 159.415C163.046 159.79 162.537 160 162.007 160C161.476 160 160.968 159.79 160.593 159.415C160.218 159.039 160.007 158.531 160.007 158V150ZM146.007 142C146.007 141.47 146.218 140.961 146.593 140.586C146.968 140.211 147.476 140 148.007 140C148.537 140 149.046 140.211 149.421 140.586C149.796 140.961 150.007 141.47 150.007 142V158C150.007 158.531 149.796 159.039 149.421 159.415C149.046 159.79 148.537 160 148.007 160C147.476 160 146.968 159.79 146.593 159.415C146.218 159.039 146.007 158.531 146.007 158V142ZM132.007 150C132.007 149.47 132.218 148.961 132.593 148.586C132.968 148.211 133.476 148 134.007 148C134.537 148 135.046 148.211 135.421 148.586C135.796 148.961 136.007 149.47 136.007 150V158C136.007 158.531 135.796 159.039 135.421 159.415C135.046 159.79 134.537 160 134.007 160C133.476 160 132.968 159.79 132.593 159.415C132.218 159.039 132.007 158.531 132.007 158V150ZM118.007 142C118.007 141.47 118.218 140.961 118.593 140.586C118.968 140.211 119.476 140 120.007 140C120.537 140 121.046 140.211 121.421 140.586C121.796 140.961 122.007 141.47 122.007 142V158C122.007 158.531 121.796 159.039 121.421 159.415C121.046 159.79 120.537 160 120.007 160C119.476 160 118.968 159.79 118.593 159.415C118.218 159.039 118.007 158.531 118.007 158V142ZM104.007 150C104.007 149.47 104.218 148.961 104.593 148.586C104.968 148.211 105.476 148 106.007 148C106.537 148 107.046 148.211 107.421 148.586C107.796 148.961 108.007 149.47 108.007 150V158C108.007 158.531 107.796 159.039 107.421 159.415C107.046 159.79 106.537 160 106.007 160C105.476 160 104.968 159.79 104.593 159.415C104.218 159.039 104.007 158.531 104.007 158V150ZM90.0069 142C90.0069 141.47 90.2176 140.961 90.5926 140.586C90.9677 140.211 91.4764 140 92.0069 140C92.5373 140 93.046 140.211 93.4211 140.586C93.7961 140.961 94.0069 141.47 94.0069 142V158C94.0069 158.531 93.7961 159.039 93.4211 159.415C93.046 159.79 92.5373 160 92.0069 160C91.4764 160 90.9677 159.79 90.5926 159.415C90.2176 159.039 90.0069 158.531 90.0069 158V142ZM76.0069 150C76.0069 149.47 76.2176 148.961 76.5926 148.586C76.9677 148.211 77.4764 148 78.0069 148C78.5373 148 79.046 148.211 79.4211 148.586C79.7961 148.961 80.0069 149.47 80.0069 150V158C80.0069 158.531 79.7961 159.039 79.4211 159.415C79.046 159.79 78.5373 160 78.0069 160C77.4764 160 76.9677 159.79 76.5926 159.415C76.2176 159.039 76.0069 158.531 76.0069 158V150ZM62.0069 142C62.0069 141.47 62.2176 140.961 62.5926 140.586C62.9677 140.211 63.4764 140 64.0069 140C64.5373 140 65.046 140.211 65.4211 140.586C65.7961 140.961 66.0069 141.47 66.0069 142V158C66.0069 158.531 65.7961 159.039 65.4211 159.415C65.046 159.79 64.5373 160 64.0069 160C63.4764 160 62.9677 159.79 62.5926 159.415C62.2176 159.039 62.0069 158.531 62.0069 158V142Z" fill="#3D73DD"/>
<path d="M234.007 98.0003C232.767 97.999 231.557 98.3832 230.544 99.0998C229.532 99.8165 228.768 100.83 228.357 102H223.987C223.661 84.3179 218.818 67.0127 209.917 51.7303L220.327 41.4903C222.124 39.7304 223.553 37.6294 224.528 35.3104C225.502 32.9913 226.005 30.501 226.005 27.9853C226.005 25.4697 225.502 22.9794 224.528 20.6603C223.553 18.3413 222.124 16.2402 220.327 14.4803C216.666 10.9145 211.757 8.91902 206.647 8.91902C201.536 8.91902 196.628 10.9145 192.967 14.4803L187.007 20.3503L181.047 14.4803C178.727 12.2089 175.876 10.5527 172.754 9.6621C169.631 8.77149 166.336 8.67465 163.167 9.38034C149.63 3.16249 134.903 -0.0380904 120.007 0.000342062C92.78 0.0307955 66.6483 10.7251 47.2118 29.7915C27.7754 48.8578 16.5807 74.7791 16.0269 102H11.6569C11.1851 100.666 10.2567 99.5412 9.03589 98.8251C7.81507 98.1089 6.38038 97.8474 4.98539 98.0868C3.5904 98.3261 2.32493 99.0509 1.41264 100.133C0.500359 101.215 0 102.585 0 104C0 105.416 0.500359 106.786 1.41264 107.868C2.32493 108.95 3.5904 109.675 4.98539 109.914C6.38038 110.153 7.81507 109.892 9.03589 109.176C10.2567 108.459 11.1851 107.335 11.6569 106H16.0269C16.5608 133.224 27.7505 159.153 47.1924 178.217C66.6343 197.282 92.7776 207.961 120.007 207.961C147.236 207.961 173.379 197.282 192.821 178.217C212.263 159.153 223.453 133.224 223.987 106H228.357C228.724 107.038 229.369 107.954 230.221 108.65C231.074 109.345 232.101 109.793 233.191 109.944C234.281 110.095 235.391 109.943 236.401 109.505C237.41 109.067 238.28 108.36 238.915 107.462C239.549 106.563 239.925 105.507 240 104.409C240.075 103.311 239.846 102.214 239.34 101.238C238.833 100.261 238.068 99.4423 237.127 98.8713C236.187 98.3004 235.107 97.9991 234.007 98.0003ZM178.237 17.3403L185.607 24.5803C185.979 24.9502 186.482 25.1577 187.007 25.1577C187.531 25.1577 188.035 24.9502 188.407 24.5803L195.777 17.3403C198.684 14.5035 202.585 12.9155 206.647 12.9155C210.709 12.9155 214.61 14.5035 217.517 17.3403C218.938 18.7252 220.067 20.3805 220.838 22.2088C221.609 24.037 222.007 26.0011 222.007 27.9853C222.007 29.9695 221.609 31.9337 220.838 33.7619C220.067 35.5902 218.938 37.2455 217.517 38.6303L205.947 50.0103L198.627 57.2203L187.007 68.6503L156.497 38.6303C153.964 36.1629 152.394 32.8729 152.07 29.3517C151.745 25.8305 152.687 22.309 154.727 19.4203C155.253 18.675 155.845 17.9788 156.497 17.3403C158.442 15.4203 160.866 14.0563 163.517 13.3903C164.775 13.071 166.069 12.9097 167.367 12.9103C171.432 12.8982 175.338 14.4901 178.237 17.3403ZM102.007 70.0003V74.0003H66.0069V70.0003H102.007ZM66.0069 58.0003V54.0003H102.007V58.0003H66.0069ZM120.007 204C93.8409 203.97 68.7267 193.697 50.0404 175.38C31.3542 157.064 20.5809 132.16 20.0269 106C20.0169 105.33 20.0069 104.67 20.0069 104C20.0069 103.33 20.0169 102.67 20.0269 102C20.5809 75.8402 31.3542 50.9365 50.0404 32.6203C68.7267 14.3041 93.8409 4.03106 120.007 4.00034C132.97 3.96652 145.813 6.48084 157.807 11.4003C156.3 12.2356 154.914 13.2718 153.687 14.4803C153.267 14.9003 152.867 15.3303 152.497 15.7703C138.444 10.6075 123.363 8.87356 108.505 10.7128C93.6479 12.552 79.4442 17.9111 67.075 26.3448C54.7057 34.7784 44.5283 46.0428 37.3888 59.2015C30.2494 72.3603 26.3541 87.0331 26.0269 102H38.6369L50.2969 82.9603C50.4755 82.667 50.7266 82.4245 51.0261 82.2564C51.3256 82.0882 51.6634 82.0001 52.0069 82.0003H52.0169C52.3602 81.9998 52.6977 82.089 52.9959 82.2591C53.2941 82.4293 53.5427 82.6745 53.7169 82.9703L65.1368 102H76.0069C76.3513 102.001 76.6897 102.091 76.9893 102.261C77.2888 102.431 77.5395 102.675 77.7169 102.97L87.8168 119.8L100.707 93.1303C100.87 92.7913 101.125 92.5053 101.444 92.3054C101.762 92.1054 102.131 91.9997 102.507 92.0003H108.737L124.197 59.1503C124.363 58.7994 124.627 58.5044 124.958 58.3013C125.289 58.0981 125.671 57.9955 126.059 58.0061C126.447 58.0168 126.824 58.14 127.143 58.361C127.462 58.5819 127.71 58.8909 127.857 59.2503L148.387 109.62L156.307 96.9403C156.489 96.6536 156.74 96.4172 157.037 96.2529C157.334 96.0887 157.667 96.0018 158.007 96.0003H163.737L172.197 78.1403C172.371 77.7861 172.644 77.4899 172.983 77.2876C173.322 77.0853 173.712 76.9855 174.107 77.0003C174.503 77.0207 174.885 77.1578 175.203 77.3945C175.522 77.6312 175.763 77.9568 175.897 78.3303L192.087 124.22L200.137 103.28C200.283 102.903 200.54 102.579 200.874 102.351C201.208 102.123 201.602 102 202.007 102H213.987C213.672 86.9501 209.745 72.196 202.537 58.9803L206.967 54.6303C215.197 69.0844 219.673 85.3705 219.987 102C219.997 102.67 220.007 103.33 220.007 104C220.007 104.67 219.997 105.33 219.987 106C219.433 132.16 208.66 157.064 189.973 175.38C171.287 193.697 146.173 203.97 120.007 204Z" fill="#3D73DD"/>
</svg>
