<svg width="236" height="223" viewBox="0 0 236 223" fill="none" xmlns="http://www.w3.org/2000/svg">
<path d="M118 223C52.8304 223 1.52588e-05 173.08 1.52588e-05 111.5C1.52588e-05 49.9203 52.8304 0 118 0C183.17 0 236 49.9203 236 111.5C236 173.08 183.17 223 118 223Z" fill="#3D73DD"/>
<path opacity="0.42" d="M118 53.4308L154.636 84.7651C182.356 107.848 206.656 130.427 229.923 152.908C213.485 194.027 181.696 220.472 124.773 222.891L68.9059 170.102V119.784L55.0017 107.303L81.3594 84.7645L118 53.4308Z" fill="url(#paint0_linear)"/>
<path d="M118 53.4308L154.636 84.7651L181.001 107.304H172.129L147.985 86.6625L118.001 61.0067L88.0087 86.6625L63.8653 107.304H55.0006L81.3582 84.7651L118 53.4308ZM118 65.3206L142.54 86.3158L167.088 107.304V170.101H134.467V121.395H101.524V170.101H68.9031V107.304L93.4509 86.3158L118 65.3206ZM128.018 127.607V170.103H107.982V127.607H128.018Z" fill="white"/>
<defs>
<linearGradient id="paint0_linear" x1="117.23" y1="115.623" x2="212.469" y2="225.902" gradientUnits="userSpaceOnUse">
<stop/>
<stop offset="1" stop-opacity="0"/>
</linearGradient>
</defs>
</svg>
