<svg width="236" height="223" viewBox="0 0 236 223" fill="none" xmlns="http://www.w3.org/2000/svg">
<path d="M118 223C183.17 223 236 173.08 236 111.5C236 49.9203 183.17 0 118 0C52.8304 0 0 49.9203 0 111.5C0 173.08 52.8304 223 118 223Z" fill="#3D73DD"/>
<path opacity="0.42" d="M117.121 60.0344C115.643 60.0344 114.267 60.299 112.993 60.8287C111.719 61.3103 110.598 62.0087 109.63 62.9237L8.40332 158.574C8.40332 158.574 23.31 210.558 88.0622 220.328L148.77 162.964V152.491H125.914V90.4413H110.244L124.538 76.9339C125.506 76.019 126.245 74.9594 126.754 73.7556C127.315 72.5517 127.596 71.2755 127.596 69.9273C127.596 68.5308 127.315 67.2545 126.754 66.0989C126.245 64.895 125.506 63.836 124.538 62.9212C123.62 62.0062 122.525 61.3078 121.251 60.8262C119.976 60.2965 118.6 60.0319 117.122 60.0319L117.121 60.0344Z" fill="url(#paint0_linear)"/>
<path d="M112.457 100.846H89.7534V90.4446H125.912V152.492H148.768V162.965H87.2314V152.492H112.458V100.845L112.457 100.846ZM117.12 60.0344C118.598 60.0344 119.974 60.2992 121.248 60.8289C122.522 61.3105 123.618 62.0088 124.535 62.9237C125.504 63.8387 126.243 64.8981 126.752 66.102C127.313 67.2578 127.593 68.5339 127.593 69.9304C127.593 71.2787 127.313 72.5549 126.752 73.7587C126.243 74.9626 125.504 76.0221 124.535 76.937C123.618 77.852 122.522 78.5743 121.248 79.104C119.974 79.5856 118.598 79.8264 117.12 79.8264C115.642 79.8264 114.266 79.5856 112.992 79.104C111.718 78.5743 110.597 77.852 109.629 76.937C108.711 76.0221 107.972 74.9626 107.412 73.7587C106.902 72.5548 106.647 71.2787 106.647 69.9304C106.647 68.5339 106.902 67.2578 107.412 66.102C107.972 64.8981 108.711 63.8387 109.629 62.9237C110.597 62.0088 111.718 61.3105 112.992 60.8289C114.266 60.2992 115.642 60.0344 117.12 60.0344Z" fill="white"/>
<defs>
<linearGradient id="paint0_linear" x1="111.212" y1="138.491" x2="45.5073" y2="194.791" gradientUnits="userSpaceOnUse">
<stop/>
<stop offset="1" stop-opacity="0"/>
</linearGradient>
</defs>
</svg>
