<svg width="236" height="223" viewBox="0 0 236 223" fill="none" xmlns="http://www.w3.org/2000/svg">
<path d="M118 223C183.17 223 236 173.08 236 111.5C236 49.9203 183.17 0 118 0C52.8304 0 0 49.9203 0 111.5C0 173.08 52.8304 223 118 223Z" fill="#3D73DD"/>
<path opacity="0.42" d="M77.1779 217.319L135.443 162.263V153.321L180.537 110.711L149.361 88.0915L125.802 110.353L119.996 109.65L121.467 108.26L135.444 95.0531V60.7362H72.5381L0.484375 128.821C9.13407 175.289 36.6337 202.862 77.1785 217.318L77.1779 217.319Z" fill="url(#paint0_linear)"/>
<path d="M180.537 110.711L149.361 88.0917V105.689C148.819 105.537 148.257 105.457 147.691 105.451H109.279C107.655 105.451 106.098 106.061 104.949 107.146C103.801 108.231 103.156 109.703 103.156 111.237C103.156 112.772 103.801 114.244 104.949 115.329C106.098 116.414 107.655 117.024 109.279 117.024H147.691C148.257 117.018 148.819 116.938 149.361 116.786V133.331L180.537 110.712V110.711ZM135.443 60.7368H72.5376V162.26H135.443V129.499H124.31V149.685H83.6703V73.3107H124.31V95.0507H135.443V60.7337V60.7368Z" fill="white"/>
<defs>
<linearGradient id="paint0_linear" x1="43.9314" y1="168.251" x2="103.396" y2="105.319" gradientUnits="userSpaceOnUse">
<stop stop-opacity="0"/>
<stop offset="1"/>
</linearGradient>
</defs>
</svg>
