<svg width="236" height="223" viewBox="0 0 236 223" fill="none" xmlns="http://www.w3.org/2000/svg">
<path d="M118 223C183.17 223 236 173.08 236 111.5C236 49.9203 183.17 0 118 0C52.8304 0 0 49.9203 0 111.5C0 173.08 52.8304 223 118 223Z" fill="#3D73DD"/>
<path d="M117.997 65.2582C110.129 65.2582 103.028 68.3604 97.9883 73.3403L9.47949 156.974C30.0018 197.083 60.9452 215.034 97.1624 221.777L164.933 157.74C164.946 157.507 164.957 157.273 164.966 157.039C164.956 140.77 156.602 125.655 142.862 117.044H142.853C136.662 122.418 128.73 125.612 120.389 126.137C120.391 126.136 120.393 126.134 120.394 126.133L137.126 110.323C142.396 105.561 145.679 98.8503 145.679 91.4157C145.679 76.9698 133.285 65.2589 117.997 65.2589L117.997 65.2582Z" fill="url(#paint0_linear)"/>
<path d="M117.997 65.2582C102.709 65.2582 90.3157 76.969 90.3157 91.4147C90.3155 105.861 102.709 117.572 117.997 117.572C133.285 117.572 145.679 105.861 145.678 91.4147C145.678 76.9687 133.285 65.2582 117.997 65.2582ZM142.853 117.044C136.073 122.93 127.204 126.202 117.997 126.215C108.803 126.2 99.948 122.935 93.1724 117.063C79.4254 125.662 71.0592 140.771 71.0356 157.041C71.0449 157.275 71.0559 157.508 71.0685 157.741H164.932C164.945 157.508 164.956 157.275 164.965 157.041C164.955 140.772 156.601 125.657 142.86 117.046L142.853 117.044Z" fill="white"/>
<defs>
<linearGradient id="paint0_linear" x1="123.752" y1="121.953" x2="50.9762" y2="198.972" gradientUnits="userSpaceOnUse">
<stop stop-opacity="0.42"/>
<stop offset="1" stop-opacity="0"/>
</linearGradient>
</defs>
</svg>
