<svg width="236" height="223" viewBox="0 0 236 223" fill="none" xmlns="http://www.w3.org/2000/svg">
<path d="M118 223C183.17 223 236 173.08 236 111.5C236 49.9203 183.17 0 118 0C52.8304 0 0 49.9203 0 111.5C0 173.08 52.8304 223 118 223Z" fill="#3D73DD"/>
<path opacity="0.42" d="M118.484 49.52C107.779 49.52 99.0743 52.2987 92.3696 57.8563L2.81641 142.435C9.80525 173.011 26.6503 193.711 52.1817 205.705L123.427 138.384C123.427 130.288 125.401 124.006 129.345 119.534L139.484 109.957C149.012 100.509 153.776 90.923 153.776 81.196C153.776 71.3592 150.659 63.6336 144.425 58.0204C138.249 52.3518 129.603 49.5175 118.486 49.5175L118.484 49.52ZM116.014 155.975C112.838 155.975 110.426 156.836 108.78 158.559L56.5321 207.928L74.5976 217.034L123.246 171.066C124.893 169.398 125.716 167.314 125.716 164.813C125.716 162.312 124.893 160.228 123.246 158.561C121.599 156.838 119.188 155.977 116.012 155.977L116.014 155.975Z" fill="url(#paint0_linear)"/>
<path d="M107.106 138.385C107.223 131.772 108.017 126.548 109.488 122.713C110.958 118.878 113.958 114.627 118.486 109.958L130.044 98.704C134.984 93.4243 137.454 87.7555 137.454 81.6977C137.454 75.8622 135.837 71.305 132.602 68.0261C129.367 64.6915 124.662 63.0242 118.486 63.0242C112.487 63.0242 107.665 64.5248 104.018 67.5258C100.371 70.5268 98.548 74.556 98.548 79.6135H82.2266C82.3442 70.6102 85.7261 63.3575 92.3722 57.8554C99.0772 52.2979 107.782 49.5191 118.486 49.5191C129.603 49.5191 138.249 52.3534 144.424 58.0221C150.659 63.6352 153.776 71.3603 153.776 81.1974C153.776 90.9231 149.012 100.51 139.484 109.959L129.868 118.962C125.574 123.464 123.427 129.938 123.427 138.386H107.106L107.106 138.385ZM106.4 164.812C106.4 162.311 107.194 160.227 108.782 158.559C110.429 156.837 112.84 155.975 116.016 155.975C119.192 155.975 121.604 156.837 123.251 158.559C124.897 160.227 125.721 162.311 125.721 164.812C125.721 167.313 124.897 169.397 123.251 171.064C121.604 172.676 119.192 173.482 116.016 173.482C112.84 173.482 110.429 172.676 108.782 171.064C107.194 169.397 106.4 167.313 106.4 164.812Z" fill="white"/>
<defs>
<linearGradient id="paint0_linear" x1="114.749" y1="92.5004" x2="39.8466" y2="171.769" gradientUnits="userSpaceOnUse">
<stop/>
<stop offset="1" stop-opacity="0"/>
</linearGradient>
</defs>
</svg>
