<svg width="236" height="223" viewBox="0 0 236 223" fill="none" xmlns="http://www.w3.org/2000/svg">
<path d="M118 223C183.17 223 236 173.08 236 111.5C236 49.9203 183.17 0 118 0C52.8304 0 0 49.9203 0 111.5C0 173.08 52.8304 223 118 223Z" fill="#3D73DD"/>
<path opacity="0.42" d="M61.8879 56.7925L0.0263672 115.246C2.92212 207.092 55.6516 221.28 114.908 222.98L174.991 166.207V74.4764L156.031 56.7948L61.8879 56.7925Z" fill="url(#paint0_linear)"/>
<path d="M61.8882 59.58V168.995H174.991V77.2639L156.031 59.5822H61.8908L61.8882 59.58ZM90.0291 67.3279L146.849 67.3464V100.442H90.0291V67.3297V67.3279ZM127.134 73.5933V94.1768H139.679V73.6059L127.134 73.5934V73.5933ZM77.645 118.015L159.23 118.04V160.017H77.645V118.015V118.015ZM85.8953 125.069V130.099H150.984V125.072L85.8953 125.069V125.069ZM85.8953 136.417V141.447H150.984V136.42L85.8953 136.417V136.417ZM85.8953 148.442V153.472H150.984V148.445L85.8953 148.443V148.442Z" fill="white"/>
<defs>
<linearGradient id="paint0_linear" x1="101.618" y1="124.635" x2="-17.1391" y2="252.97" gradientUnits="userSpaceOnUse">
<stop/>
<stop offset="1" stop-opacity="0"/>
</linearGradient>
</defs>
</svg>
