<svg width="236" height="223" viewBox="0 0 236 223" fill="none" xmlns="http://www.w3.org/2000/svg">
<path d="M118 223C183.17 223 236 173.08 236 111.5C236 49.9203 183.17 0 118 0C52.8304 0 0 49.9203 0 111.5C0 173.08 52.8304 223 118 223Z" fill="#3D73DD"/>
<path d="M102.757 54.0636C91.1022 54.0636 79.4476 58.2649 70.5551 66.6672L1.13867 132.26C9.7686 180.709 33.2288 219.029 107.348 222.748L178.788 155.246L141.346 119.867C152.572 102.89 149.925 80.8417 134.962 66.67C126.069 58.2677 114.414 54.0664 102.76 54.0664L102.757 54.0636Z" fill="url(#paint0_linear)"/>
<path d="M70.5548 66.6686C62.0146 74.7389 57.2168 85.6843 57.2168 97.097C57.2168 108.51 62.0146 119.455 70.5548 127.525C77.838 134.392 87.3672 138.726 97.5901 139.821C107.813 140.917 118.127 138.709 126.853 133.558L164.294 168.937L178.785 155.244L141.344 119.865C146.795 111.621 149.132 101.874 147.973 92.2147C146.813 82.555 142.227 73.5507 134.96 66.6686C126.419 58.5988 114.836 54.0653 102.758 54.0653C90.6799 54.0653 79.0965 58.5988 70.5557 66.6686H70.5548ZM81.2911 76.8137C86.9847 71.4353 94.7059 68.4139 102.757 68.4139C110.808 68.4139 118.529 71.4353 124.222 76.8137C129.915 82.1938 133.113 89.4904 133.113 97.0984C133.113 104.706 129.915 112.003 124.222 117.383C118.529 122.761 110.808 125.783 102.757 125.783C94.7059 125.783 86.9847 122.761 81.2911 117.383C75.5982 112.003 72.4 104.706 72.4 97.0984C72.4 89.4904 75.5982 82.1938 81.2911 76.8137Z" fill="white"/>
<defs>
<linearGradient id="paint0_linear" x1="103.15" y1="116.08" x2="-12.9424" y2="242.919" gradientUnits="userSpaceOnUse">
<stop stop-opacity="0.4"/>
<stop offset="1" stop-opacity="0"/>
</linearGradient>
</defs>
</svg>
