<svg width="238" height="224" viewBox="0 0 238 224" fill="none" xmlns="http://www.w3.org/2000/svg">
<path d="M119 223.029C184.17 223.029 237 173.109 237 111.529C237 49.9495 184.17 0.0292969 119 0.0292969C53.8304 0.0292969 1 49.9495 1 111.529C1 173.109 53.8304 223.029 119 223.029Z" fill="#3D73DD" stroke="#273B50" stroke-width="0.055301"/>
<path opacity="0.465" d="M111.48 38.5917L95.4774 54.3726L86.9513 44.7949L73.9225 51.903L1.22607 120.595C4.75719 180.294 56.348 220.905 109.384 222.851L182.11 154.131L189.632 141.819L179.469 133.741L196.192 118.613V104.396L179.725 101.633C179.155 98.6079 178.335 95.6304 177.272 92.7278L189.613 81.1948L182.09 68.8826L166.273 74.3016C163.897 71.6217 161.273 69.1483 158.43 66.9103L164.115 51.8974L151.086 44.7898L138.854 56.4873C135.66 55.5254 132.351 54.6676 129.528 54.1788L126.526 38.5916L111.48 38.5917Z" fill="url(#paint0_linear)" stroke="#273B50" stroke-width="0.032702"/>
<path d="M111.48 38.5917L108.547 54.1975C104.854 54.7777 101.224 55.6726 97.7013 56.8712L86.9507 44.7949L73.9216 51.9033L79.4996 66.633C76.5528 68.9061 73.8336 71.4306 71.3762 74.1746L55.9459 68.8877L48.4235 81.199L60.7943 91.1166C59.4058 94.556 58.3632 98.1113 57.6804 101.736L41.8247 104.396V118.612L57.6754 121.337C58.3077 124.997 59.3062 128.592 60.6574 132.073L48.4034 141.814L55.9259 154.126L70.9443 149.048C73.4597 151.945 76.2632 154.607 79.3164 156.998L73.9016 171.11L86.9306 178.218L97.2263 166.751C100.943 168.065 104.785 169.039 108.699 169.66L111.48 184.454H126.525L129.378 169.637C133.249 168.985 137.046 167.987 140.717 166.655L151.104 178.224L164.134 171.116L158.59 156.669C161.551 154.334 164.274 151.743 166.726 148.93L182.109 154.131L189.631 141.819L176.969 131.755C178.276 128.399 179.256 124.938 179.896 121.414L196.19 118.612V104.396L179.724 101.633C179.071 98.1691 178.09 94.7679 176.793 91.4703L189.611 81.1943L182.089 68.8821L166.272 74.3014C163.896 71.6215 161.271 69.1479 158.429 66.9101L164.113 51.8974L151.084 44.7893L140.249 56.9616C136.77 55.7324 133.181 54.801 129.526 54.1786L126.525 38.5914H111.48L111.48 38.5917ZM119.008 88.7398C122.174 88.7397 125.31 89.3291 128.236 90.4741C131.161 91.6191 133.819 93.2974 136.058 95.4132C138.298 97.529 140.074 100.041 141.285 102.805C142.497 105.57 143.121 108.532 143.121 111.525C143.121 114.517 142.497 117.48 141.285 120.244C140.074 123.008 138.298 125.52 136.058 127.636C133.819 129.752 131.161 131.43 128.236 132.575C125.31 133.72 122.174 134.309 119.008 134.309C115.841 134.309 112.706 133.72 109.78 132.575C106.855 131.43 104.196 129.752 101.957 127.636C99.7181 125.52 97.942 123.008 96.7302 120.244C95.5184 117.48 94.8947 114.517 94.8948 111.525C94.8947 108.532 95.5184 105.57 96.7302 102.805C97.942 100.041 99.7181 97.529 101.957 95.4132C104.196 93.2974 106.855 91.6191 109.78 90.4741C112.706 89.3291 115.841 88.7397 119.008 88.7398ZM119.008 97.8536C115.171 97.8536 111.491 99.2939 108.778 101.858C106.064 104.421 104.54 107.899 104.54 111.524C104.54 115.15 106.064 118.627 108.778 121.191C111.491 123.755 115.171 125.195 119.008 125.195C122.845 125.195 126.525 123.755 129.238 121.191C131.951 118.627 133.475 115.15 133.475 111.524C133.475 107.899 131.951 104.421 129.238 101.858C126.525 99.2939 122.845 97.8536 119.008 97.8536Z" fill="white" stroke="#273B50" stroke-width="0.032702"/>
<defs>
<linearGradient id="paint0_linear" x1="28.2593" y1="209.358" x2="127.362" y2="91.725" gradientUnits="userSpaceOnUse">
<stop stop-opacity="0"/>
<stop offset="1"/>
</linearGradient>
</defs>
</svg>
