<svg width="1278" height="240" viewBox="0 0 1278 240" fill="none" xmlns="http://www.w3.org/2000/svg">
<path d="M118 223C183.17 223 236 173.08 236 111.5C236 49.9203 183.17 0 118 0C52.8304 0 0 49.9203 0 111.5C0 173.08 52.8304 223 118 223Z" fill="#3D73DD"/>
<path opacity="0.42" d="M143.205 56.0873L112.206 85.3867C100.213 104.649 75.6408 101.495 62.3894 99.274L3.57227 154.851C13.1984 197.467 46.8134 221.668 110.368 222.88L169.356 167.141L143.214 141.618L119.55 128.709L169.355 81.6306L143.205 56.0873Z" fill="url(#paint0_linear)"/>
<path d="M156.506 50.8775C154.036 50.8777 151.59 51.3379 149.307 52.2317C147.025 53.1255 144.951 54.4355 143.205 56.0866C141.459 57.7378 140.073 59.6979 139.129 61.855C138.184 64.0121 137.699 66.3239 137.7 68.6584C137.704 69.5617 137.781 70.4633 137.93 71.3556L88.6918 98.214C85.243 95.2748 80.7653 93.6453 76.121 93.6391C71.1334 93.6397 66.3502 95.5122 62.8235 98.8447C59.2967 102.177 57.3151 106.697 57.3145 111.41C57.3151 116.123 59.2967 120.642 62.8235 123.975C66.3502 127.307 71.1334 129.18 76.121 129.18C80.9227 129.179 85.5419 127.442 89.032 124.325L138.008 151.049C137.808 152.079 137.705 153.124 137.7 154.171C137.701 158.884 139.683 163.404 143.209 166.736C146.736 170.069 151.519 171.941 156.507 171.942C161.495 171.941 166.278 170.069 169.804 166.736C173.331 163.404 175.313 158.884 175.313 154.171C175.315 151.837 174.829 149.525 173.884 147.368C172.94 145.211 171.555 143.251 169.808 141.6C168.062 139.948 165.988 138.639 163.706 137.745C161.424 136.851 158.977 136.391 156.507 136.39C154.036 136.394 151.59 136.858 149.309 137.755C147.027 138.652 144.956 139.965 143.212 141.619L94.5307 115.062C94.7992 113.861 94.9354 112.637 94.9371 111.41C94.9263 110.047 94.7496 108.689 94.4104 107.364L142.902 80.9209C144.658 82.6605 146.768 84.0457 149.106 84.9925C151.444 85.9393 153.961 86.4282 156.505 86.4295C161.493 86.4289 166.276 84.5565 169.803 81.224C173.33 77.8915 175.311 73.3718 175.312 68.6589C175.313 66.3245 174.827 64.0127 173.883 61.8556C172.938 59.6985 171.553 57.7384 169.807 56.0872C168.06 54.436 165.987 53.1261 163.704 52.2323C161.422 51.3385 158.976 50.8783 156.505 50.878L156.506 50.8775Z" fill="white"/>
<path d="M1160 240C1225.17 240 1278 190.08 1278 128.5C1278 66.9203 1225.17 17 1160 17C1094.83 17 1042 66.9203 1042 128.5C1042 190.08 1094.83 240 1160 240Z" fill="#3D73DD"/>
<path opacity="0.42" d="M1140.9 239.233L1210.1 173.843V113.701H1183.22L1164.83 131.07H1163.81L1194.54 102.033L1199.02 83.1566L1179.04 87.381L1154.99 110.103L1154.32 109.478C1153.57 108.783 1152.56 108.396 1151.51 108.401C1150.46 108.406 1149.46 108.802 1148.71 109.503L1059.27 194.019C1075.59 217.364 1102.02 233.027 1140.9 239.233Z" fill="url(#paint1_linear)"/>
<path d="M1136.78 148.439H1109.9V173.843H1136.78V148.439Z" fill="white"/>
<path d="M1173.44 131.07H1146.56V173.844H1173.44V131.07Z" fill="white"/>
<path d="M1210.1 113.701H1183.22V173.843H1210.1V113.701Z" fill="white"/>
<path d="M1123.39 142.513C1123.92 142.514 1124.43 142.417 1124.92 142.228C1125.4 142.039 1125.84 141.761 1126.21 141.411L1151.55 117.462L1157.21 122.707C1157.96 123.402 1158.97 123.789 1160.02 123.785C1161.07 123.78 1162.07 123.384 1162.82 122.683L1189.61 97.3675L1194.54 102.033L1199.02 83.1566L1179.04 87.381L1183.98 92.0459L1159.97 114.725L1154.32 109.479C1153.57 108.784 1152.56 108.397 1151.51 108.402C1150.46 108.407 1149.46 108.803 1148.71 109.504L1120.58 136.09C1120.02 136.616 1119.64 137.286 1119.49 138.016C1119.33 138.746 1119.41 139.503 1119.71 140.19C1120.02 140.878 1120.53 141.466 1121.18 141.879C1121.84 142.293 1122.61 142.513 1123.39 142.513H1123.39Z" fill="white"/>
<defs>
<linearGradient id="paint0_linear" x1="115.05" y1="130.126" x2="4.76875" y2="230.278" gradientUnits="userSpaceOnUse">
<stop/>
<stop offset="1" stop-opacity="0"/>
</linearGradient>
<linearGradient id="paint1_linear" x1="1170.33" y1="150.249" x2="1110.91" y2="213.13" gradientUnits="userSpaceOnUse">
<stop/>
<stop offset="1" stop-opacity="0"/>
</linearGradient>
</defs>
</svg>
