<svg width="236" height="223" viewBox="0 0 236 223" fill="none" xmlns="http://www.w3.org/2000/svg">
<path d="M118 223C183.17 223 236 173.08 236 111.5C236 49.9203 183.17 0 118 0C52.8304 0 0 49.9203 0 111.5C0 173.08 52.8304 223 118 223Z" fill="#3D73DD"/>
<path opacity="0.42" d="M76.3619 218.592L153.353 145.842C154.157 145.103 154.936 144.34 155.69 143.553C155.773 143.486 155.851 143.414 155.924 143.337C159.865 139.149 162.997 134.34 165.178 129.129C165.2 129.076 165.222 129.022 165.244 128.969C165.358 128.695 165.469 128.419 165.578 128.143C165.623 128.028 165.668 127.912 165.712 127.797C165.793 127.585 165.873 127.372 165.95 127.159C166.012 126.991 166.073 126.824 166.132 126.655C166.187 126.5 166.24 126.344 166.293 126.188C166.368 125.969 166.442 125.751 166.513 125.531C166.543 125.439 166.572 125.347 166.601 125.255C167.232 123.268 167.724 121.244 168.076 119.196C168.081 119.164 168.087 119.133 168.092 119.101C168.143 118.8 168.19 118.498 168.235 118.196C168.247 118.117 168.259 118.038 168.27 117.959C168.309 117.687 168.346 117.415 168.38 117.142C168.394 117.028 168.408 116.914 168.421 116.799C168.45 116.551 168.477 116.303 168.502 116.054C168.517 115.908 168.53 115.763 168.543 115.618C168.564 115.393 168.583 115.169 168.6 114.944C168.614 114.764 168.625 114.584 168.637 114.403C168.649 114.207 168.663 114.011 168.673 113.814C168.684 113.585 168.692 113.356 168.7 113.127C168.706 112.973 168.713 112.819 168.717 112.665C168.727 112.277 168.732 111.889 168.733 111.5C168.733 111.098 168.727 110.696 168.716 110.296C168.714 110.182 168.707 110.068 168.704 109.954C168.694 109.666 168.684 109.378 168.669 109.091C168.662 108.971 168.653 108.852 168.646 108.732C168.629 108.449 168.611 108.165 168.589 107.883C168.58 107.777 168.57 107.673 168.561 107.568C168.535 107.268 168.508 106.969 168.476 106.67C168.468 106.589 168.458 106.508 168.449 106.426C168.412 106.1 168.373 105.774 168.33 105.449C168.323 105.401 168.316 105.353 168.31 105.305C168.26 104.942 168.206 104.58 168.148 104.218L168.144 104.195C166.569 94.4391 161.829 85.3859 154.577 78.284C154.495 78.2036 154.406 78.1288 154.312 78.0602C149.593 73.4725 143.947 69.8258 137.71 67.3356C131.473 64.8454 124.771 63.5623 118 63.5624C111.229 63.5624 104.526 64.8455 98.2893 67.3357C92.0522 69.8259 86.4069 73.4728 81.6873 78.0605L4.80469 150.698C13.3066 188.083 36.9873 210.88 76.3619 218.592Z" fill="url(#paint0_linear)"/>
<path d="M165.244 128.969C165.358 128.695 165.469 128.419 165.578 128.143C165.623 128.028 165.668 127.912 165.712 127.797C165.793 127.585 165.872 127.372 165.95 127.159C166.012 126.991 166.073 126.824 166.132 126.655C166.187 126.5 166.24 126.344 166.293 126.188C166.368 125.969 166.442 125.751 166.513 125.531C166.543 125.439 166.571 125.347 166.601 125.255C167.232 123.268 167.724 121.244 168.075 119.196C168.081 119.164 168.087 119.133 168.092 119.101C168.143 118.8 168.19 118.498 168.235 118.196C168.247 118.117 168.259 118.038 168.27 117.959C168.309 117.688 168.345 117.415 168.379 117.142C168.394 117.028 168.407 116.914 168.421 116.799C168.45 116.551 168.477 116.303 168.502 116.054C168.517 115.909 168.53 115.763 168.543 115.618C168.564 115.393 168.583 115.169 168.6 114.944C168.614 114.764 168.625 114.584 168.637 114.404C168.649 114.207 168.662 114.011 168.672 113.814C168.684 113.585 168.692 113.356 168.7 113.127C168.706 112.973 168.713 112.82 168.717 112.665C168.727 112.277 168.732 111.889 168.732 111.5C168.732 111.098 168.727 110.697 168.716 110.296C168.713 110.182 168.707 110.068 168.703 109.954C168.694 109.666 168.684 109.378 168.669 109.091C168.662 108.971 168.653 108.852 168.646 108.732C168.629 108.449 168.611 108.165 168.589 107.883C168.58 107.777 168.57 107.673 168.561 107.568C168.535 107.268 168.508 106.969 168.476 106.67C168.468 106.589 168.457 106.508 168.448 106.426C168.412 106.1 168.372 105.774 168.33 105.449C168.323 105.401 168.316 105.353 168.31 105.305C168.26 104.942 168.206 104.58 168.148 104.218L168.144 104.195C166.569 94.4391 161.828 85.3859 154.577 78.284C154.494 78.2036 154.406 78.1288 154.312 78.0602C149.593 73.4725 143.947 69.8258 137.71 67.3356C131.473 64.8454 124.771 63.5623 118 63.5624C111.229 63.5624 104.526 64.8455 98.2891 67.3357C92.052 69.8259 86.4067 73.4728 81.6871 78.0605C81.5936 78.129 81.5053 78.2037 81.4229 78.284C74.1718 85.3856 69.4315 94.4384 67.856 104.193L67.8518 104.219C67.7937 104.579 67.74 104.941 67.6907 105.304C67.684 105.352 67.6768 105.401 67.6703 105.449C67.6271 105.774 67.5876 106.099 67.5519 106.425C67.5427 106.507 67.5326 106.588 67.5239 106.67C67.4923 106.969 67.4651 107.268 67.4394 107.567C67.4303 107.672 67.4198 107.777 67.4114 107.882C67.3891 108.165 67.3714 108.448 67.3542 108.732C67.347 108.851 67.3378 108.971 67.3315 109.091C67.3165 109.378 67.3064 109.666 67.2967 109.953C67.2929 110.068 67.2868 110.181 67.2838 110.296C67.2733 110.696 67.2679 111.098 67.2676 111.5C67.2676 111.889 67.2728 112.277 67.2832 112.665C67.2871 112.819 67.2945 112.973 67.3 113.127C67.3082 113.356 67.316 113.585 67.3277 113.813C67.3376 114.011 67.3509 114.207 67.3633 114.403C67.3749 114.584 67.386 114.764 67.3997 114.944C67.4167 115.169 67.4365 115.393 67.4568 115.617C67.47 115.763 67.4833 115.908 67.4979 116.054C67.5229 116.303 67.55 116.551 67.5792 116.799C67.5926 116.913 67.6064 117.028 67.6207 117.142C67.6548 117.415 67.6911 117.687 67.7299 117.959C67.7412 118.038 67.7533 118.117 67.7651 118.196C67.81 118.498 67.8576 118.8 67.9078 119.1C67.9133 119.132 67.9192 119.164 67.9246 119.196C68.2759 121.244 68.7687 123.269 69.3999 125.256C69.4289 125.348 69.457 125.44 69.4866 125.531C69.558 125.751 69.6323 125.97 69.707 126.188C69.7601 126.344 69.8128 126.499 69.8674 126.654C69.9273 126.824 69.9887 126.992 70.0505 127.16C70.1281 127.373 70.2072 127.584 70.2877 127.795C70.3324 127.912 70.3776 128.028 70.4234 128.144C70.5311 128.419 70.6415 128.693 70.7547 128.966C70.7775 129.021 70.8001 129.076 70.8231 129.131C73.004 134.341 76.1359 139.15 80.0762 143.337C80.149 143.413 80.227 143.485 80.3097 143.552C85.0603 148.551 90.8714 152.549 97.3649 155.286C103.859 158.023 110.889 159.437 117.999 159.437C125.11 159.437 132.14 158.023 138.634 155.286C145.128 152.55 150.939 148.552 155.69 143.553C155.773 143.486 155.851 143.414 155.924 143.337C159.865 139.149 162.997 134.34 165.178 129.129C165.2 129.076 165.222 129.022 165.244 128.969ZM163.603 114.531C163.59 114.709 163.576 114.887 163.56 115.064C163.548 115.206 163.534 115.348 163.52 115.489C163.501 115.692 163.481 115.894 163.458 116.096C163.449 116.178 163.438 116.26 163.428 116.342C163.327 117.191 163.201 118.035 163.048 118.874L163.046 118.886C162.996 119.16 162.942 119.434 162.886 119.707C162.877 119.75 162.869 119.794 162.86 119.837C162.805 120.099 162.748 120.361 162.688 120.622C162.677 120.672 162.665 120.723 162.653 120.773C162.593 121.033 162.53 121.292 162.465 121.551C162.454 121.594 162.443 121.637 162.432 121.68C162.169 122.707 161.866 123.722 161.523 124.726C161.466 124.893 161.41 125.06 161.351 125.226C161.309 125.344 161.265 125.462 161.222 125.58C161.142 125.797 161.062 126.014 160.979 126.229C160.949 126.308 160.918 126.386 160.888 126.465C160.78 126.738 160.671 127.011 160.558 127.282C160.548 127.305 160.539 127.329 160.529 127.353C158.798 131.477 156.407 135.324 153.438 138.76C150.196 137.22 146.814 135.958 143.333 134.991C145.489 128.578 146.735 121.379 146.951 113.869H163.646C163.644 113.916 163.641 113.962 163.638 114.008C163.628 114.183 163.616 114.357 163.603 114.531H163.603ZM75.4718 127.354C75.4617 127.329 75.4517 127.305 75.4416 127.281C75.3289 127.01 75.2192 126.738 75.1127 126.465C75.082 126.386 75.0511 126.308 75.0209 126.229C74.938 126.014 74.8579 125.797 74.7785 125.58C74.7354 125.462 74.6915 125.344 74.6495 125.226C74.5905 125.06 74.5343 124.893 74.4774 124.726C74.1359 123.722 73.8329 122.707 73.5685 121.68C73.5575 121.637 73.546 121.594 73.5351 121.551C73.4698 121.293 73.4071 121.034 73.347 120.774C73.3352 120.723 73.3234 120.672 73.3116 120.621C73.2522 120.36 73.1951 120.099 73.1405 119.838C73.1314 119.794 73.1228 119.75 73.1137 119.706C73.058 119.433 73.0047 119.16 72.954 118.886L72.9519 118.874C72.7985 118.036 72.6718 117.193 72.5718 116.344C72.562 116.261 72.5511 116.179 72.5416 116.096C72.5189 115.894 72.4993 115.691 72.4795 115.489C72.4657 115.348 72.4517 115.206 72.4394 115.064C72.4239 114.887 72.4101 114.709 72.3969 114.531C72.3841 114.357 72.3723 114.183 72.3617 114.008C72.3588 113.962 72.3565 113.916 72.3538 113.869H89.049C89.2655 121.379 90.511 128.578 92.6672 134.991C89.1862 135.958 85.8044 137.22 82.5628 138.76C79.5937 135.324 77.202 131.477 75.4716 127.354L75.4718 127.354ZM72.4081 108.305C72.4166 108.196 72.4263 108.087 72.4356 107.978C72.4574 107.724 72.4812 107.471 72.5071 107.219C72.5164 107.13 72.5263 107.04 72.5361 106.951C72.5677 106.667 72.6021 106.384 72.6391 106.102C72.6464 106.047 72.6535 105.993 72.6609 105.938C73.8392 97.3586 77.7257 89.3139 83.8136 82.8524C86.8717 84.22 90.0423 85.3507 93.2942 86.2331C90.7515 93.0797 89.2859 100.92 89.0491 109.131H72.3533C72.3553 109.095 72.3576 109.06 72.3597 109.024C72.374 108.784 72.3893 108.544 72.4079 108.305H72.4081ZM163.339 105.939C163.347 105.993 163.354 106.047 163.361 106.101C163.398 106.384 163.433 106.668 163.464 106.953C163.474 107.041 163.484 107.129 163.493 107.218C163.519 107.471 163.543 107.724 163.565 107.979C163.574 108.088 163.584 108.196 163.592 108.305C163.611 108.544 163.626 108.784 163.64 109.024C163.643 109.06 163.645 109.095 163.647 109.131H146.951C146.714 100.92 145.249 93.0798 142.706 86.2332C145.958 85.3507 149.128 84.2201 152.187 82.8525C158.275 89.3141 162.161 97.359 163.339 105.938L163.339 105.939ZM115.492 84.6008C110.328 84.4754 105.185 83.9173 100.124 82.9332C100.554 82.0698 101.004 81.2317 101.475 80.4187C105.391 73.6799 110.295 69.5549 115.492 68.5465V84.6008ZM115.492 89.342V109.131H94.0666C94.3046 101.285 95.7232 93.8369 98.1738 87.4029C103.868 88.5702 109.667 89.2195 115.492 89.342ZM115.492 113.869V131.684C109.442 131.819 103.421 132.521 97.5184 133.78C95.4702 127.777 94.2825 120.987 94.0666 113.869L115.492 113.869ZM115.492 136.424V154.454C110.295 153.445 105.391 149.32 101.475 142.581C100.663 141.177 99.9275 139.734 99.2719 138.258C104.606 137.165 110.037 136.551 115.492 136.424ZM120.507 136.424C125.963 136.551 131.394 137.165 136.728 138.258C136.072 139.734 135.337 141.177 134.525 142.581C130.609 149.32 125.705 153.445 120.507 154.453L120.507 136.424ZM120.507 131.684V113.869H141.933C141.717 120.987 140.53 127.777 138.481 133.78C132.578 132.521 126.557 131.819 120.507 131.684ZM120.507 109.131V89.342C126.333 89.2195 132.132 88.5702 137.826 87.4029C140.276 93.8369 141.695 101.285 141.933 109.131H120.507ZM120.507 84.6008V68.5465C125.705 69.5549 130.609 73.6799 134.525 80.4187C134.996 81.2304 135.447 82.0686 135.876 82.9332C130.815 83.9173 125.672 84.4754 120.507 84.6008ZM140.836 81.788C140.238 80.5256 139.599 79.3089 138.92 78.138C137.43 75.5245 135.621 73.0848 133.53 70.8689C139.009 72.7485 144.058 75.5998 148.405 79.2697C145.944 80.2673 143.415 81.1086 140.836 81.788ZM97.0794 78.138C96.4004 79.3066 95.762 80.5232 95.1642 81.788C92.5847 81.1086 90.0561 80.2673 87.5951 79.2697C91.942 75.5999 96.9908 72.7486 102.47 70.869C100.379 73.0849 98.5699 75.5245 97.0794 78.138ZM94.3669 139.448C95.1596 141.301 96.0653 143.108 97.0794 144.862C98.5699 147.476 100.379 149.915 102.47 152.131C96.339 150.027 90.7543 146.71 86.0893 142.402C88.7637 141.217 91.5311 140.23 94.3669 139.448ZM138.92 144.862C139.934 143.108 140.84 141.301 141.633 139.448C144.469 140.23 147.236 141.217 149.911 142.402C145.246 146.71 139.661 150.027 133.53 152.131C135.621 149.915 137.43 147.476 138.92 144.862Z" fill="white"/>
<defs>
<linearGradient id="paint0_linear" x1="125.816" y1="104.111" x2="52.7418" y2="181.445" gradientUnits="userSpaceOnUse">
<stop/>
<stop offset="1" stop-opacity="0"/>
</linearGradient>
</defs>
</svg>
